<svg version="1.1" viewBox="0.0 0.0 925.1863517060367 926.5223097112861" fill="none" stroke="none" stroke-linecap="square" stroke-miterlimit="10" xmlns:xlink="http://www.w3.org/1999/xlink" xmlns="http://www.w3.org/2000/svg"><clipPath id="p.0"><path d="m0 0l925.18634 0l0 926.52234l-925.18634 0l0 -926.52234z" clip-rule="nonzero"/></clipPath><g clip-path="url(#p.0)"><path fill="#000000" fill-opacity="0.0" d="m0 0l925.18634 0l0 926.52234l-925.18634 0z" fill-rule="evenodd"/><path fill="#434343" d="m469.003 270.99475c0 -4.574829 -2.8695984 -8.283478 -6.4094543 -8.283478c-1.6998901 0 -3.3301392 0.8727417 -4.5321655 2.426178c-1.2019958 1.5534668 -1.8772583 3.6604004 -1.8772583 5.8573c0 4.574829 2.8695984 8.283478 6.409424 8.283478c3.539856 0 6.4094543 -3.7086487 6.4094543 -8.283478z" fill-rule="evenodd"/><path fill="#ffffff" d="m213.98744 569.9291c-3.1124268 -30.950989 18.329391 -69.68286 47.72441 -95.4462c29.39502 -25.763336 78.15573 -47.54901 128.64566 -59.13388c50.48996 -11.584839 120.34604 -17.983368 174.29398 -10.375305c53.947937 7.608032 123.28436 22.651794 149.39368 56.02362c26.109375 33.371826 12.2769165 100.46106 7.262512 144.20734c-5.0144653 43.746277 -1.5564575 98.55859 -37.34912 118.270325c-35.792664 19.711731 -110.144775 10.5477295 -177.4068 0c-67.262054 -10.547668 -177.40463 -37.69507 -226.16537 -63.28607c-48.76071 -25.591003 -63.286514 -59.308838 -66.39894 -90.25983z" fill-rule="evenodd"/><path stroke="#004b62" stroke-width="16.0" stroke-linejoin="round" stroke-linecap="butt" d="m213.98744 569.9291c-3.1124268 -30.950989 18.329391 -69.68286 47.72441 -95.4462c29.39502 -25.763336 78.15573 -47.54901 128.64566 -59.13388c50.48996 -11.584839 120.34604 -17.983368 174.29398 -10.375305c53.947937 7.608032 123.28436 22.651794 149.39368 56.02362c26.109375 33.371826 12.2769165 100.46106 7.262512 144.20734c-5.0144653 43.746277 -1.5564575 98.55859 -37.34912 118.270325c-35.792664 19.711731 -110.144775 10.5477295 -177.4068 0c-67.262054 -10.547668 -177.40463 -37.69507 -226.16537 -63.28607c-48.76071 -25.591003 -63.286514 -59.308838 -66.39894 -90.25983z" fill-rule="evenodd"/><path fill="#ffffff" d="m334.33533 475.51865c-44.956696 -17.464111 -57.751526 -55.849518 -65.35959 -88.183716c-7.608032 -32.334198 -0.6920166 -86.45538 19.711304 -105.82153c20.40332 -19.36612 52.91031 -9.683716 102.70865 -10.375305c49.79834 -0.6916199 151.98907 -14.35083 196.08136 6.225708c44.092285 20.576569 76.599304 81.44095 68.47247 117.23358c-8.126892 35.792664 -63.631226 84.03546 -117.23364 97.52234c-53.602325 13.486877 -159.42386 0.8630676 -204.38055 -16.601074z" fill-rule="evenodd"/><path stroke="#004b62" stroke-width="16.0" stroke-linejoin="round" stroke-linecap="butt" d="m334.33533 475.51865c-44.956696 -17.464111 -57.751526 -55.849518 -65.35959 -88.183716c-7.608032 -32.334198 -0.6920166 -86.45538 19.711304 -105.82153c20.40332 -19.36612 52.91031 -9.683716 102.70865 -10.375305c49.79834 -0.6916199 151.98907 -14.35083 196.08136 6.225708c44.092285 20.576569 76.599304 81.44095 68.47247 117.23358c-8.126892 35.792664 -63.631226 84.03546 -117.23364 97.52234c-53.602325 13.486877 -159.42386 0.8630676 -204.38055 -16.601074z" fill-rule="evenodd"/><path fill="#ffffff" d="m388.28177 298.11673c-34.063416 -8.472443 -56.541107 -33.890198 -65.35959 -52.910767c-8.818451 -19.020554 -14.006561 -45.47769 12.448822 -61.212585c26.455383 -15.734909 108.243225 -37.174118 146.28348 -33.196854c38.040222 3.9772491 74.349976 32.853012 81.95801 57.060364c7.608032 24.207352 -7.0879517 73.14043 -36.309692 88.18373c-29.221802 15.043304 -104.95761 10.548553 -139.02103 2.0761108z" fill-rule="evenodd"/><path stroke="#004b62" stroke-width="16.0" stroke-linejoin="round" stroke-linecap="butt" d="m388.28177 298.11673c-34.063416 -8.472443 -56.541107 -33.890198 -65.35959 -52.910767c-8.818451 -19.020554 -14.006561 -45.47769 12.448822 -61.212585c26.455383 -15.734909 108.243225 -37.174118 146.28348 -33.196854c38.040222 3.9772491 74.349976 32.853012 81.95801 57.060364c7.608032 24.207352 -7.0879517 73.14043 -36.309692 88.18373c-29.221802 15.043304 -104.95761 10.548553 -139.02103 2.0761108z" fill-rule="evenodd"/><path fill="#000000" d="m403.84647 203.70604c0 -8.593033 6.5006714 -15.5590515 14.519684 -15.5590515c3.8508606 0 7.543976 1.6392517 10.266968 4.557129c2.7229614 2.9178925 4.252716 6.8753967 4.252716 11.001923c0 8.593033 -6.500702 15.5590515 -14.519684 15.5590515c-8.019012 0 -14.519684 -6.9660187 -14.519684 -15.5590515z" fill-rule="evenodd"/><path stroke="#000000" stroke-width="1.0" stroke-linejoin="round" stroke-linecap="butt" d="m403.84647 203.70604c0 -8.593033 6.5006714 -15.5590515 14.519684 -15.5590515c3.8508606 0 7.543976 1.6392517 10.266968 4.557129c2.7229614 2.9178925 4.252716 6.8753967 4.252716 11.001923c0 8.593033 -6.500702 15.5590515 -14.519684 15.5590515c-8.019012 0 -14.519684 -6.9660187 -14.519684 -15.5590515z" fill-rule="evenodd"/><path fill="#000000" d="m464.31628 203.70604c0 -8.593033 6.5006714 -15.5590515 14.519684 -15.5590515c3.8508606 0 7.543976 1.6392517 10.266968 4.557129c2.7229614 2.9178925 4.252716 6.8753967 4.252716 11.001923c0 8.593033 -6.500702 15.5590515 -14.519684 15.5590515c-8.019012 0 -14.519684 -6.9660187 -14.519684 -15.5590515z" fill-rule="evenodd"/><path stroke="#000000" stroke-width="1.0" stroke-linejoin="round" stroke-linecap="butt" d="m464.31628 203.70604c0 -8.593033 6.5006714 -15.5590515 14.519684 -15.5590515c3.8508606 0 7.543976 1.6392517 10.266968 4.557129c2.7229614 2.9178925 4.252716 6.8753967 4.252716 11.001923c0 8.593033 -6.500702 15.5590515 -14.519684 15.5590515c-8.019012 0 -14.519684 -6.9660187 -14.519684 -15.5590515z" fill-rule="evenodd"/><path fill="#434343" d="m374.8071 238.99475c0 -4.574829 3.0176697 -8.283463 6.740143 -8.283463c1.7875977 0 3.5019836 0.8727112 4.7660217 2.4261627c1.2640076 1.5534515 1.9741516 3.6603851 1.9741516 5.8573c0 4.574829 -3.0176697 8.283463 -6.7401733 8.283463c-3.7224731 0 -6.740143 -3.7086334 -6.740143 -8.283463z" fill-rule="evenodd"/><path fill="#434343" d="m390.8071 254.99475c0 -4.574829 3.0176697 -8.283463 6.740143 -8.283463c1.7875977 0 3.5019836 0.8727112 4.7660217 2.4261627c1.2640076 1.5534515 1.9741516 3.6603851 1.9741516 5.8573c0 4.574829 -3.0176697 8.283478 -6.7401733 8.283478c-3.7224731 0 -6.740143 -3.7086487 -6.740143 -8.283478z" fill-rule="evenodd"/><path fill="#434343" d="m411.84384 264.40683c0 -4.574829 3.0176697 -8.283478 6.740143 -8.283478c1.7875977 0 3.5019836 0.8727417 4.7660217 2.426178c1.2640076 1.5534363 1.9741516 3.6603699 1.9741516 5.8573c0 4.574829 -3.0176697 8.283447 -6.7401733 8.283447c-3.7224731 0 -6.740143 -3.7086182 -6.740143 -8.283447z" fill-rule="evenodd"/><path fill="#434343" d="m434.01443 269.12598c0 -4.574829 3.0176697 -8.283447 6.7401733 -8.283447c1.7875977 0 3.5019836 0.8727112 4.765991 2.4261475c1.2640381 1.5534668 1.9741516 3.6604004 1.9741516 5.8573c0 4.574829 -3.0176697 8.283478 -6.740143 8.283478c-3.7225037 0 -6.7401733 -3.7086487 -6.7401733 -8.283478z" fill-rule="evenodd"/><path fill="#434343" d="m455.1063 269.12598c0 -4.574829 3.0176697 -8.283447 6.7401733 -8.283447c1.7875977 0 3.5019836 0.8727112 4.765991 2.4261475c1.2640381 1.5534668 1.9741516 3.6604004 1.9741516 5.8573c0 4.574829 -3.0176697 8.283478 -6.740143 8.283478c-3.7225037 0 -6.7401733 -3.7086487 -6.7401733 -8.283478z" fill-rule="evenodd"/><path fill="#434343" d="m524.2507 238.99475c0 -4.574829 -2.869629 -8.283463 -6.409485 -8.283463c-1.6998901 0 -3.3301392 0.8727112 -4.5321655 2.4261627c-1.2019653 1.5534515 -1.8772583 3.6603851 -1.8772583 5.8573c0 4.574829 2.869629 8.283463 6.409424 8.283463c3.539856 0 6.409485 -3.7086334 6.409485 -8.283463z" fill-rule="evenodd"/><path fill="#434343" d="m509.03058 254.99475c0 -4.574829 -2.8695984 -8.283463 -6.4094543 -8.283463c-1.6998901 0 -3.3301392 0.8727112 -4.5321655 2.4261627c-1.2019958 1.5534515 -1.8772583 3.6603851 -1.8772583 5.8573c0 4.574829 2.8695984 8.283478 6.409424 8.283478c3.539856 0 6.4094543 -3.7086487 6.4094543 -8.283478z" fill-rule="evenodd"/><path fill="#434343" d="m489.01678 264.40683c0 -4.574829 -2.8695984 -8.283478 -6.4094543 -8.283478c-1.6998901 0 -3.3301392 0.8727417 -4.5321655 2.426178c-1.2019958 1.5534363 -1.8772583 3.6603699 -1.8772583 5.8573c0 4.574829 2.8695984 8.283447 6.409424 8.283447c3.539856 0 6.4094543 -3.7086182 6.4094543 -8.283447z" fill-rule="evenodd"/><path fill="#000000" fill-opacity="0.0" d="m149.66536 312.64304l70.031494 0l0 56.031494l70.03148 0" fill-rule="evenodd"/><path stroke="#0081a7" stroke-width="12.0" stroke-linejoin="round" stroke-linecap="butt" d="m195.14536 312.64304l24.551498 0l0 56.031494l70.03148 0" fill-rule="evenodd"/><path stroke="#0081a7" stroke-width="12.0" stroke-linecap="butt" d="m195.14536 332.38306l-39.479996 0l0 -39.48001l39.479996 0l0 39.48001z" fill-rule="nonzero"/><path fill="#000000" fill-opacity="0.0" d="m597.8517 323.01575l84.55121 0l0 65.35434l84.55115 0" fill-rule="evenodd"/><path stroke="#0081a7" stroke-width="12.0" stroke-linejoin="round" stroke-linecap="butt" d="m597.8517 323.01575l84.55121 0l0 65.35434l39.071167 0" fill-rule="evenodd"/><path stroke="#0081a7" stroke-width="12.0" stroke-linecap="butt" d="m760.95404 388.3701c0 10.9021 -8.837891 19.73999 -19.73999 19.73999c-10.9021 0 -19.73999 -8.837891 -19.73999 -19.73999c0 -10.9021 8.837891 -19.74002 19.73999 -19.74002c10.9021 0 19.73999 8.837921 19.73999 19.74002z" fill-rule="nonzero"/><path fill="#ff9900" d="m447.49475 222.8937l92.25195 10.094482l-92.25195 10.094482z" fill-rule="evenodd"/><path fill="#000000" d="m445.521 346.0971c0 -3.2962952 5.161072 -5.968506 11.527557 -5.968506c6.3664856 0 11.527557 2.6722107 11.527557 5.968506c0 3.2963257 -5.161072 5.968506 -11.527557 5.968506c-6.3664856 0 -11.527557 -2.6721802 -11.527557 -5.968506z" fill-rule="evenodd"/><path stroke="#000000" stroke-width="1.0" stroke-linejoin="round" stroke-linecap="butt" d="m445.521 346.0971c0 -3.2962952 5.161072 -5.968506 11.527557 -5.968506c6.3664856 0 11.527557 2.6722107 11.527557 5.968506c0 3.2963257 -5.161072 5.968506 -11.527557 5.968506c-6.3664856 0 -11.527557 -2.6721802 -11.527557 -5.968506z" fill-rule="evenodd"/><path fill="#000000" d="m445.521 392.1181c0 -3.2962952 5.161072 -5.968506 11.527557 -5.968506c6.3664856 0 11.527557 2.6722107 11.527557 5.968506c0 3.2963257 -5.161072 5.968506 -11.527557 5.968506c-6.3664856 0 -11.527557 -2.6721802 -11.527557 -5.968506z" fill-rule="evenodd"/><path stroke="#000000" stroke-width="1.0" stroke-linejoin="round" stroke-linecap="butt" d="m445.521 392.1181c0 -3.2962952 5.161072 -5.968506 11.527557 -5.968506c6.3664856 0 11.527557 2.6722107 11.527557 5.968506c0 3.2963257 -5.161072 5.968506 -11.527557 5.968506c-6.3664856 0 -11.527557 -2.6721802 -11.527557 -5.968506z" fill-rule="evenodd"/><path fill="#000000" d="m445.521 438.1391c0 -3.2962952 5.161072 -5.968506 11.527557 -5.968506c6.3664856 0 11.527557 2.6722107 11.527557 5.968506c0 3.2963257 -5.161072 5.968506 -11.527557 5.968506c-6.3664856 0 -11.527557 -2.6721802 -11.527557 -5.968506z" fill-rule="evenodd"/><path stroke="#000000" stroke-width="1.0" stroke-linejoin="round" stroke-linecap="butt" d="m445.521 438.1391c0 -3.2962952 5.161072 -5.968506 11.527557 -5.968506c6.3664856 0 11.527557 2.6722107 11.527557 5.968506c0 3.2963257 -5.161072 5.968506 -11.527557 5.968506c-6.3664856 0 -11.527557 -2.6721802 -11.527557 -5.968506z" fill-rule="evenodd"/></g></svg>